<?xml version="1.0" ?><svg width="64px" height="64px" viewBox="0 0 64 64" style="enable-background:new 0 0 64 64;" version="1.1" xml:space="preserve" xmlns="http://www.w3.org/2000/svg" xmlns:xlink="http://www.w3.org/1999/xlink"><style type="text/css">
	.st0{fill:#FFEEA9;}
	.st1{fill:#D32436;}
	.st2{fill:#8DD1D3;}
	.st3{fill:#330D00;}
	.st4{fill:none;stroke:#330D00;stroke-linecap:round;stroke-linejoin:round;stroke-miterlimit:10;}
</style><g id="_x34_0-Id_Card"/><g id="_x33_9-Formula"/><g id="_x33_8-Elbow"/><g id="_x33_7-Diploma"/><g id="_x33_6-Laptop"/><g id="_x33_5-Brush"/><g id="_x33_4-Baseball"/><g id="_x33_3-Student"/><g id="_x33_2-Highlighter"/><g id="_x33_1-Ruler"/><g id="_x33_0-Caliper"/><g id="_x32_9-Ruler_Elbow"/><g id="_x32_8-Abacus"/><g id="_x32_7-Id_Card"/><g id="_x32_6-Eraser"/><g id="_x32_5-Pencil"/><g id="_x32_4-Ink"/><g id="_x32_3-Graduation_Cap"/><g id="_x32_2-_Sling_Bag"/><g id="_x32_1-Rugby_Ball"/><g id="_x32_0-Clock"/><g id="_x31_9-Certificate"/><g id="_x31_8-Idea"/><g id="_x31_7-Bookshelf"/><g id="_x31_6-Formula"/><g id="_x31_5-Bell"/><g id="_x31_4-Magnifying_Glass"/><g id="_x31_3-Calculator"/><g id="_x31_2-Eyeglasses"/><g id="_x31_1-Bus"/><g id="_x31_0-Trophy"/><g id="_x39_-Globe"/><g id="_x38_-Basket_Ball"><g><g><path class="st2" d="M62.9,32c0,8.1-3.1,15.4-8.2,21C49,59.1,41,62.9,32,62.9S15,59.1,9.3,53c-5.1-5.5-8.2-12.9-8.2-21     c0-8.1,3.1-15.4,8.2-21C15,4.9,23,1.1,32,1.1S49,4.9,54.7,11C59.8,16.6,62.9,23.9,62.9,32z"/></g><g><ellipse class="st0" cx="32" cy="53" rx="22.7" ry="9.9"/></g><g><ellipse class="st0" cx="32" cy="11" rx="22.7" ry="9.9"/></g><g><path class="st3" d="M55.5,10.3C49.5,3.7,40.9,0,32,0S14.5,3.7,8.5,10.3C3,16.2,0,23.9,0,32s3,15.8,8.5,21.7     C14.5,60.3,23.1,64,32,64s17.5-3.7,23.5-10.3C61,47.8,64,40.1,64,32S61,16.2,55.5,10.3z M54.6,51.3c-5.7-5.7-13.4-9.1-21.5-9.4     v-8.9h28.6C61.5,39.8,59,46.2,54.6,51.3z M51.3,54.7c-0.4,0.3-0.8,0.7-1.3,1c-0.4,0.3-0.7,0.6-1.1,0.8c-0.4,0.3-0.9,0.6-1.4,0.9     c-0.4,0.2-0.8,0.5-1.2,0.7c-0.5,0.3-1,0.5-1.5,0.7c-0.4,0.2-0.8,0.4-1.2,0.6c-0.5,0.2-1,0.4-1.6,0.6c-0.4,0.1-0.8,0.3-1.2,0.4     c-0.6,0.2-1.1,0.3-1.7,0.5c-0.4,0.1-0.8,0.2-1.2,0.3c-0.6,0.1-1.3,0.2-2,0.3c-0.3,0-0.7,0.1-1,0.2c-0.6,0.1-1.3,0.1-1.9,0.1V44.2     c7.5,0.3,14.7,3.4,20,8.7c-0.3,0.3-0.5,0.5-0.8,0.8C52,54,51.7,54.3,51.3,54.7z M28,61.5c-0.7-0.1-1.3-0.2-2-0.3     c-0.4-0.1-0.8-0.2-1.2-0.3c-0.6-0.1-1.2-0.3-1.7-0.5c-0.4-0.1-0.8-0.3-1.2-0.4c-0.5-0.2-1.1-0.4-1.6-0.6     c-0.4-0.2-0.8-0.4-1.2-0.6c-0.5-0.2-1-0.5-1.5-0.7c-0.4-0.2-0.8-0.5-1.2-0.7c-0.5-0.3-0.9-0.6-1.4-0.9c-0.4-0.3-0.8-0.6-1.1-0.8     c-0.4-0.3-0.9-0.6-1.3-1c-0.4-0.3-0.7-0.6-1-1c-0.3-0.2-0.5-0.5-0.8-0.8c5.3-5.3,12.5-8.5,20-8.7v17.5c-0.6,0-1.3,0-1.9-0.1     C28.6,61.6,28.3,61.5,28,61.5z M9.4,12.7c5.7,5.7,13.4,9.1,21.5,9.4v8.9H2.3C2.5,24.2,5,17.8,9.4,12.7z M12.7,9.3     c0.4-0.3,0.8-0.7,1.3-1c0.4-0.3,0.7-0.6,1.1-0.8c0.4-0.3,0.9-0.6,1.4-0.9c0.4-0.2,0.8-0.5,1.2-0.7c0.5-0.3,1-0.5,1.5-0.7     c0.4-0.2,0.8-0.4,1.2-0.6c0.5-0.2,1-0.4,1.6-0.6c0.4-0.1,0.8-0.3,1.2-0.4c0.6-0.2,1.1-0.3,1.7-0.5C25.2,3,25.6,2.9,26,2.8     c0.6-0.1,1.3-0.2,2-0.3c0.3,0,0.7-0.1,1-0.2c0.6-0.1,1.3-0.1,1.9-0.1v17.5c-7.5-0.3-14.7-3.4-20-8.7c0.3-0.3,0.5-0.5,0.8-0.8     C12,10,12.3,9.7,12.7,9.3z M36,2.5c0.7,0.1,1.3,0.2,2,0.3c0.4,0.1,0.8,0.2,1.2,0.3c0.6,0.1,1.2,0.3,1.7,0.5     c0.4,0.1,0.8,0.3,1.2,0.4c0.5,0.2,1.1,0.4,1.6,0.6c0.4,0.2,0.8,0.4,1.2,0.6c0.5,0.2,1,0.5,1.5,0.7c0.4,0.2,0.8,0.5,1.2,0.7     c0.5,0.3,0.9,0.6,1.4,0.9c0.4,0.3,0.8,0.6,1.1,0.8c0.4,0.3,0.9,0.6,1.3,1c0.4,0.3,0.7,0.6,1,1c0.3,0.2,0.5,0.5,0.8,0.8     c-5.3,5.3-12.5,8.5-20,8.7V2.3c0.6,0,1.3,0,1.9,0.1C35.4,2.4,35.7,2.5,36,2.5z M30.9,33.1V42c-8.1,0.3-15.8,3.6-21.5,9.4     C5,46.2,2.5,39.8,2.3,33.1H30.9z M33.1,30.9V22c8.1-0.3,15.8-3.6,21.5-9.4c4.4,5.1,6.9,11.5,7.1,18.2H33.1z"/></g></g></g><g id="_x37_-Pen"/><g id="_x36_-Board"/><g id="_x35_-Bag"/><g id="_x34_-Exam"/><g id="_x33_-Book"/><g id="_x32_-Ruler"/><g id="_x31_-Building"/></svg>