<svg width="55" height="44" viewBox="0 0 55 44" fill="none" xmlns="http://www.w3.org/2000/svg">
<path d="M3.81479 12.3368C2.43388 11.2597 0.41841 12.2381 0.417884 13.9895C0.416245 19.4563 0.413696 28.8521 0.413696 34.437C0.413696 39.4249 4.4401 43.4513 9.42803 43.4513H45.4854C50.4733 43.4513 54.4997 39.4249 54.4997 34.437C54.4997 27.5858 54.6532 20.711 54.5742 13.854C54.5545 12.1414 52.5974 11.1997 51.2334 12.2355L37.4949 22.6683L45.2548 28.5069C46.1168 29.1554 46.2898 30.3799 45.6412 31.2418C44.9927 32.1038 43.7682 32.2768 42.9063 31.6283L34.2613 25.1238L33.8628 25.4265C29.9 28.4357 24.4079 28.4001 20.4845 25.3397L20.1309 25.0639L20.1267 25.067L11.4062 31.6283C10.5443 32.2768 9.31982 32.1038 8.67129 31.2418C8.02277 30.3799 8.19578 29.1554 9.05772 28.5069L16.9409 22.5756L3.81479 12.3368Z" fill="#3A83F1"/>
<path d="M2.5787 4.13986C1.90376 4.92738 2.15313 6.08663 2.97094 6.72454L22.887 22.2597C25.4131 24.2301 28.9491 24.253 31.5004 22.3156L51.9533 6.78402C52.7829 6.15399 53.045 4.99132 52.3724 4.19583C50.7154 2.23625 48.2395 0.993774 45.4854 0.993774H9.42803C6.6837 0.993774 4.23044 2.21262 2.5787 4.13986Z" fill="#3A83F1"/>
</svg>
